<svg id="visual" viewBox="0 0 2560 1440" width="2560" height="1440" xmlns="http://www.w3.org/2000/svg" xmlns:xlink="http://www.w3.org/1999/xlink" version="1.1"><rect x="0" y="0" width="2560" height="1440" fill="#1F2937"></rect><path d="M0 860L61 871.5C122 883 244 906 365.8 913.8C487.7 921.7 609.3 914.3 731.2 913.3C853 912.3 975 917.7 1097 942C1219 966.3 1341 1009.7 1463 1026.5C1585 1043.3 1707 1033.7 1828.8 1002.7C1950.7 971.7 2072.3 919.3 2194.2 891.5C2316 863.7 2438 860.3 2499 858.7L2560 857L2560 1441L2499 1441C2438 1441 2316 1441 2194.2 1441C2072.3 1441 1950.7 1441 1828.8 1441C1707 1441 1585 1441 1463 1441C1341 1441 1219 1441 1097 1441C975 1441 853 1441 731.2 1441C609.3 1441 487.7 1441 365.8 1441C244 1441 122 1441 61 1441L0 1441Z" fill="#4facf7"></path><path d="M0 1091L61 1098.2C122 1105.3 244 1119.7 365.8 1105.7C487.7 1091.7 609.3 1049.3 731.2 1038C853 1026.7 975 1046.3 1097 1052.3C1219 1058.3 1341 1050.7 1463 1040.5C1585 1030.3 1707 1017.7 1828.8 1004C1950.7 990.3 2072.3 975.7 2194.2 999C2316 1022.3 2438 1083.7 2499 1114.3L2560 1145L2560 1441L2499 1441C2438 1441 2316 1441 2194.2 1441C2072.3 1441 1950.7 1441 1828.8 1441C1707 1441 1585 1441 1463 1441C1341 1441 1219 1441 1097 1441C975 1441 853 1441 731.2 1441C609.3 1441 487.7 1441 365.8 1441C244 1441 122 1441 61 1441L0 1441Z" fill="#2b9dfc"></path><path d="M0 1171L61 1161.7C122 1152.3 244 1133.7 365.8 1116.7C487.7 1099.7 609.3 1084.3 731.2 1077.3C853 1070.3 975 1071.7 1097 1078.3C1219 1085 1341 1097 1463 1110.2C1585 1123.3 1707 1137.7 1828.8 1153.3C1950.7 1169 2072.3 1186 2194.2 1182.7C2316 1179.3 2438 1155.7 2499 1143.8L2560 1132L2560 1441L2499 1441C2438 1441 2316 1441 2194.2 1441C2072.3 1441 1950.7 1441 1828.8 1441C1707 1441 1585 1441 1463 1441C1341 1441 1219 1441 1097 1441C975 1441 853 1441 731.2 1441C609.3 1441 487.7 1441 365.8 1441C244 1441 122 1441 61 1441L0 1441Z" fill="#008cff"></path><path d="M0 1191L61 1195.8C122 1200.7 244 1210.3 365.8 1210C487.7 1209.7 609.3 1199.3 731.2 1193.8C853 1188.3 975 1187.7 1097 1198.7C1219 1209.7 1341 1232.3 1463 1250.8C1585 1269.3 1707 1283.7 1828.8 1268.3C1950.7 1253 2072.3 1208 2194.2 1195.7C2316 1183.3 2438 1203.7 2499 1213.8L2560 1224L2560 1441L2499 1441C2438 1441 2316 1441 2194.2 1441C2072.3 1441 1950.7 1441 1828.8 1441C1707 1441 1585 1441 1463 1441C1341 1441 1219 1441 1097 1441C975 1441 853 1441 731.2 1441C609.3 1441 487.7 1441 365.8 1441C244 1441 122 1441 61 1441L0 1441Z" fill="#007aff"></path><path d="M0 1369L61 1357.7C122 1346.3 244 1323.7 365.8 1315.5C487.7 1307.3 609.3 1313.7 731.2 1318.5C853 1323.3 975 1326.7 1097 1335.7C1219 1344.7 1341 1359.3 1463 1357.3C1585 1355.3 1707 1336.7 1828.8 1337C1950.7 1337.3 2072.3 1356.7 2194.2 1357.5C2316 1358.3 2438 1340.7 2499 1331.8L2560 1323L2560 1441L2499 1441C2438 1441 2316 1441 2194.2 1441C2072.3 1441 1950.7 1441 1828.8 1441C1707 1441 1585 1441 1463 1441C1341 1441 1219 1441 1097 1441C975 1441 853 1441 731.2 1441C609.3 1441 487.7 1441 365.8 1441C244 1441 122 1441 61 1441L0 1441Z" fill="#0066ff"></path></svg>