<svg id="visual" viewBox="0 0 2560 1440" width="2560" height="1440" xmlns="http://www.w3.org/2000/svg" xmlns:xlink="http://www.w3.org/1999/xlink" version="1.1"><path d="M0 87L71.2 89.5C142.3 92 284.7 97 426.8 99.5C569 102 711 102 853.2 102C995.3 102 1137.7 102 1280 94.8C1422.3 87.7 1564.7 73.3 1706.8 70.8C1849 68.3 1991 77.7 2133.2 84.8C2275.3 92 2417.7 97 2488.8 99.5L2560 102L2560 0L2488.8 0C2417.7 0 2275.3 0 2133.2 0C1991 0 1849 0 1706.8 0C1564.7 0 1422.3 0 1280 0C1137.7 0 995.3 0 853.2 0C711 0 569 0 426.8 0C284.7 0 142.3 0 71.2 0L0 0Z" fill="#3e4c5f"></path><path d="M0 217L71.2 214.7C142.3 212.3 284.7 207.7 426.8 212.5C569 217.3 711 231.7 853.2 236.3C995.3 241 1137.7 236 1280 233.5C1422.3 231 1564.7 231 1706.8 223.8C1849 216.7 1991 202.3 2133.2 197.7C2275.3 193 2417.7 198 2488.8 200.5L2560 203L2560 100L2488.8 97.5C2417.7 95 2275.3 90 2133.2 82.8C1991 75.7 1849 66.3 1706.8 68.8C1564.7 71.3 1422.3 85.7 1280 92.8C1137.7 100 995.3 100 853.2 100C711 100 569 100 426.8 97.5C284.7 95 142.3 90 71.2 87.5L0 85Z" fill="#2a3646"></path><path d="M0 519L71.2 519C142.3 519 284.7 519 426.8 507C569 495 711 471 853.2 466.3C995.3 461.7 1137.7 476.3 1280 498C1422.3 519.7 1564.7 548.3 1706.8 565C1849 581.7 1991 586.3 2133.2 596C2275.3 605.7 2417.7 620.3 2488.8 627.7L2560 635L2560 201L2488.8 198.5C2417.7 196 2275.3 191 2133.2 195.7C1991 200.3 1849 214.7 1706.8 221.8C1564.7 229 1422.3 229 1280 231.5C1137.7 234 995.3 239 853.2 234.3C711 229.7 569 215.3 426.8 210.5C284.7 205.7 142.3 210.3 71.2 212.7L0 215Z" fill="#1e2633"></path><path d="M0 635L71.2 627.7C142.3 620.3 284.7 605.7 426.8 591.2C569 576.7 711 562.3 853.2 560C995.3 557.7 1137.7 567.3 1280 584.2C1422.3 601 1564.7 625 1706.8 641.8C1849 658.7 1991 668.3 2133.2 680.3C2275.3 692.3 2417.7 706.7 2488.8 713.8L2560 721L2560 633L2488.8 625.7C2417.7 618.3 2275.3 603.7 2133.2 594C1991 584.3 1849 579.7 1706.8 563C1564.7 546.3 1422.3 517.7 1280 496C1137.7 474.3 995.3 459.7 853.2 464.3C711 469 569 493 426.8 505C284.7 517 142.3 517 71.2 517L0 517Z" fill="#1a202b"></path><path d="M0 851L71.2 846.2C142.3 841.3 284.7 831.7 426.8 802.8C569 774 711 726 853.2 726C995.3 726 1137.7 774 1280 810C1422.3 846 1564.7 870 1706.8 872.3C1849 874.7 1991 855.3 2133.2 850.5C2275.3 845.7 2417.7 855.3 2488.8 860.2L2560 865L2560 719L2488.8 711.8C2417.7 704.7 2275.3 690.3 2133.2 678.3C1991 666.3 1849 656.7 1706.8 639.8C1564.7 623 1422.3 599 1280 582.2C1137.7 565.3 995.3 555.7 853.2 558C711 560.3 569 574.7 426.8 589.2C284.7 603.7 142.3 618.3 71.2 625.7L0 633Z" fill="#191f29"></path><path d="M0 951L71.2 955.8C142.3 960.7 284.7 970.3 426.8 951.2C569 932 711 884 853.2 876.8C995.3 869.7 1137.7 903.3 1280 937C1422.3 970.7 1564.7 1004.3 1706.8 1004.3C1849 1004.3 1991 970.7 2133.2 961C2275.3 951.3 2417.7 965.7 2488.8 972.8L2560 980L2560 863L2488.8 858.2C2417.7 853.3 2275.3 843.7 2133.2 848.5C1991 853.3 1849 872.7 1706.8 870.3C1564.7 868 1422.3 844 1280 808C1137.7 772 995.3 724 853.2 724C711 724 569 772 426.8 800.8C284.7 829.7 142.3 839.3 71.2 844.2L0 849Z" fill="#1a202b"></path><path d="M0 1283L71.2 1285.3C142.3 1287.7 284.7 1292.3 426.8 1285C569 1277.7 711 1258.3 853.2 1253.5C995.3 1248.7 1137.7 1258.3 1280 1265.7C1422.3 1273 1564.7 1278 1706.8 1275.7C1849 1273.3 1991 1263.7 2133.2 1256.3C2275.3 1249 2417.7 1244 2488.8 1241.5L2560 1239L2560 978L2488.8 970.8C2417.7 963.7 2275.3 949.3 2133.2 959C1991 968.7 1849 1002.3 1706.8 1002.3C1564.7 1002.3 1422.3 968.7 1280 935C1137.7 901.3 995.3 867.7 853.2 874.8C711 882 569 930 426.8 949.2C284.7 968.3 142.3 958.7 71.2 953.8L0 949Z" fill="#1e2633"></path><path d="M0 1340L71.2 1342.5C142.3 1345 284.7 1350 426.8 1350C569 1350 711 1345 853.2 1342.5C995.3 1340 1137.7 1340 1280 1342.5C1422.3 1345 1564.7 1350 1706.8 1347.7C1849 1345.3 1991 1335.7 2133.2 1333.2C2275.3 1330.7 2417.7 1335.3 2488.8 1337.7L2560 1340L2560 1237L2488.8 1239.5C2417.7 1242 2275.3 1247 2133.2 1254.3C1991 1261.7 1849 1271.3 1706.8 1273.7C1564.7 1276 1422.3 1271 1280 1263.7C1137.7 1256.3 995.3 1246.7 853.2 1251.5C711 1256.3 569 1275.7 426.8 1283C284.7 1290.3 142.3 1285.7 71.2 1283.3L0 1281Z" fill="#2a3646"></path><path d="M0 1441L71.2 1441C142.3 1441 284.7 1441 426.8 1441C569 1441 711 1441 853.2 1441C995.3 1441 1137.7 1441 1280 1441C1422.3 1441 1564.7 1441 1706.8 1441C1849 1441 1991 1441 2133.2 1441C2275.3 1441 2417.7 1441 2488.8 1441L2560 1441L2560 1338L2488.8 1335.7C2417.7 1333.3 2275.3 1328.7 2133.2 1331.2C1991 1333.7 1849 1343.3 1706.8 1345.7C1564.7 1348 1422.3 1343 1280 1340.5C1137.7 1338 995.3 1338 853.2 1340.5C711 1343 569 1348 426.8 1348C284.7 1348 142.3 1343 71.2 1340.5L0 1338Z" fill="#3e4c5f"></path></svg>