<svg id="visual" viewBox="0 0 2560 1440" width="2560" height="1440" xmlns="http://www.w3.org/2000/svg" xmlns:xlink="http://www.w3.org/1999/xlink" version="1.1"><g stroke-width="1" stroke-linejoin="bevel"><path d="M1395.2 750L1385.2 973L1678.7 951Z" fill="#000000" stroke="#000000"></path><path d="M1678.7 951L1698.7 702L1395.2 750Z" fill="#05111f" stroke="#05111f"></path><path d="M1385.2 973L1456.2 1226L1678.7 951Z" fill="#000c1b" stroke="#000c1b"></path><path d="M1456.2 1226L1685.7 1217L1678.7 951Z" fill="#000718" stroke="#000718"></path><path d="M1678.7 951L1953.1 998L1698.7 702Z" fill="#000718" stroke="#000718"></path><path d="M1395.2 750L1136.8 992L1385.2 973Z" fill="#0e1825" stroke="#0e1825"></path><path d="M1385.2 973L1124.8 1185L1456.2 1226Z" fill="#000000" stroke="#000000"></path><path d="M1698.7 702L1392.2 440L1395.2 750Z" fill="#111b29" stroke="#111b29"></path><path d="M1392.2 440L1107.8 709L1395.2 750Z" fill="#151f2c" stroke="#151f2c"></path><path d="M1395.2 750L1107.8 709L1136.8 992Z" fill="#0a1522" stroke="#0a1522"></path><path d="M1703.7 464L1392.2 440L1698.7 702Z" fill="#1c2633" stroke="#1c2633"></path><path d="M1685.7 1217L1953.1 998L1678.7 951Z" fill="#1c2633" stroke="#1c2633"></path><path d="M1698.7 702L1991.1 503L1703.7 464Z" fill="#000718" stroke="#000718"></path><path d="M877.3 1198L1124.8 1185L1136.8 992Z" fill="#000000" stroke="#000000"></path><path d="M1136.8 992L1124.8 1185L1385.2 973Z" fill="#151f2c" stroke="#151f2c"></path><path d="M1953.1 998L2029.1 712L1698.7 702Z" fill="#111b29" stroke="#111b29"></path><path d="M1685.7 1217L1976.1 1182L1953.1 998Z" fill="#000000" stroke="#000000"></path><path d="M1953.1 998L2262.6 975L2029.1 712Z" fill="#0e1825" stroke="#0e1825"></path><path d="M1124.8 1185L1384.2 1440L1456.2 1226Z" fill="#000718" stroke="#000718"></path><path d="M1456.2 1226L1674.7 1440L1685.7 1217Z" fill="#182230" stroke="#182230"></path><path d="M1685.7 1217L2001.1 1440L1976.1 1182Z" fill="#000718" stroke="#000718"></path><path d="M1384.2 1440L1674.7 1440L1456.2 1226Z" fill="#000000" stroke="#000000"></path><path d="M2029.1 712L1991.1 503L1698.7 702Z" fill="#151f2c" stroke="#151f2c"></path><path d="M1392.2 440L1107.8 442L1107.8 709Z" fill="#05111f" stroke="#05111f"></path><path d="M1703.7 464L1444.2 245L1392.2 440Z" fill="#05111f" stroke="#05111f"></path><path d="M1392.2 440L1130.8 205L1107.8 442Z" fill="#111b29" stroke="#111b29"></path><path d="M1723.7 210L1444.2 245L1703.7 464Z" fill="#111b29" stroke="#111b29"></path><path d="M868.3 499L877.3 699L1107.8 709Z" fill="#000000" stroke="#000000"></path><path d="M1107.8 709L846.3 968L1136.8 992Z" fill="#1c2633" stroke="#1c2633"></path><path d="M877.3 699L846.3 968L1107.8 709Z" fill="#1c2633" stroke="#1c2633"></path><path d="M1124.8 1185L1143.8 1440L1384.2 1440Z" fill="#000718" stroke="#000718"></path><path d="M1982.1 258L1723.7 210L1703.7 464Z" fill="#1c2633" stroke="#1c2633"></path><path d="M877.3 1198L1143.8 1440L1124.8 1185Z" fill="#05111f" stroke="#05111f"></path><path d="M846.3 968L877.3 1198L1136.8 992Z" fill="#151f2c" stroke="#151f2c"></path><path d="M1674.7 1440L2001.1 1440L1685.7 1217Z" fill="#111b29" stroke="#111b29"></path><path d="M1976.1 1182L2262.6 975L1953.1 998Z" fill="#000000" stroke="#000000"></path><path d="M2256.6 1210L2262.6 975L1976.1 1182Z" fill="#1f2937" stroke="#1f2937"></path><path d="M2029.1 712L2309.6 467L1991.1 503Z" fill="#111b29" stroke="#111b29"></path><path d="M1107.8 442L868.3 499L1107.8 709Z" fill="#111b29" stroke="#111b29"></path><path d="M561.9 751L577.9 944L846.3 968Z" fill="#000c1b" stroke="#000c1b"></path><path d="M840.3 206L868.3 499L1107.8 442Z" fill="#182230" stroke="#182230"></path><path d="M2309.6 467L1982.1 258L1991.1 503Z" fill="#000718" stroke="#000718"></path><path d="M1991.1 503L1982.1 258L1703.7 464Z" fill="#000000" stroke="#000000"></path><path d="M1455.2 0L1130.8 205L1444.2 245Z" fill="#000718" stroke="#000718"></path><path d="M1444.2 245L1130.8 205L1392.2 440Z" fill="#0a1522" stroke="#0a1522"></path><path d="M2262.6 975L2288.6 746L2029.1 712Z" fill="#151f2c" stroke="#151f2c"></path><path d="M2001.1 1440L2256.6 1210L1976.1 1182Z" fill="#0a1522" stroke="#0a1522"></path><path d="M2262.6 975L2560 994L2288.6 746Z" fill="#0e1825" stroke="#0e1825"></path><path d="M1740.7 0L1455.2 0L1723.7 210Z" fill="#0a1522" stroke="#0a1522"></path><path d="M1723.7 210L1455.2 0L1444.2 245Z" fill="#0a1522" stroke="#0a1522"></path><path d="M2288.6 746L2309.6 467L2029.1 712Z" fill="#0a1522" stroke="#0a1522"></path><path d="M2560 714L2309.6 467L2288.6 746Z" fill="#1c2633" stroke="#1c2633"></path><path d="M877.3 1198L848.3 1440L1143.8 1440Z" fill="#111b29" stroke="#111b29"></path><path d="M588.9 1179L848.3 1440L877.3 1198Z" fill="#0a1522" stroke="#0a1522"></path><path d="M1982.1 258L1740.7 0L1723.7 210Z" fill="#151f2c" stroke="#151f2c"></path><path d="M2028.1 0L1740.7 0L1982.1 258Z" fill="#05111f" stroke="#05111f"></path><path d="M2001.1 1440L2259.6 1440L2256.6 1210Z" fill="#000000" stroke="#000000"></path><path d="M2560 1175L2560 994L2262.6 975Z" fill="#05111f" stroke="#05111f"></path><path d="M1455.2 0L1142.8 0L1130.8 205Z" fill="#000000" stroke="#000000"></path><path d="M1130.8 205L840.3 206L1107.8 442Z" fill="#182230" stroke="#182230"></path><path d="M561.9 751L846.3 968L877.3 699Z" fill="#151f2c" stroke="#151f2c"></path><path d="M846.3 968L588.9 1179L877.3 1198Z" fill="#000c1b" stroke="#000c1b"></path><path d="M561.9 751L877.3 699L592.9 448Z" fill="#05111f" stroke="#05111f"></path><path d="M855.3 0L840.3 206L1130.8 205Z" fill="#000c1b" stroke="#000c1b"></path><path d="M592.9 448L877.3 699L868.3 499Z" fill="#0a1522" stroke="#0a1522"></path><path d="M2309.6 467L2248.6 206L1982.1 258Z" fill="#05111f" stroke="#05111f"></path><path d="M577.9 1440L588.9 1179L301.4 1215Z" fill="#0e1825" stroke="#0e1825"></path><path d="M577.9 944L588.9 1179L846.3 968Z" fill="#000000" stroke="#000000"></path><path d="M2248.6 206L2028.1 0L1982.1 258Z" fill="#111b29" stroke="#111b29"></path><path d="M840.3 206L592.9 448L868.3 499Z" fill="#000718" stroke="#000718"></path><path d="M2560 1175L2262.6 975L2256.6 1210Z" fill="#151f2c" stroke="#151f2c"></path><path d="M2309.6 467L2560 262L2248.6 206Z" fill="#151f2c" stroke="#151f2c"></path><path d="M2560 994L2560 714L2288.6 746Z" fill="#111b29" stroke="#111b29"></path><path d="M2560 1440L2560 1175L2256.6 1210Z" fill="#1c2633" stroke="#1c2633"></path><path d="M1142.8 0L855.3 0L1130.8 205Z" fill="#000718" stroke="#000718"></path><path d="M840.3 206L534.9 218L592.9 448Z" fill="#0e1825" stroke="#0e1825"></path><path d="M302.4 982L588.9 1179L577.9 944Z" fill="#0a1522" stroke="#0a1522"></path><path d="M588.9 1179L577.9 1440L848.3 1440Z" fill="#000000" stroke="#000000"></path><path d="M2560 714L2560 452L2309.6 467Z" fill="#000000" stroke="#000000"></path><path d="M2248.6 206L2241.6 0L2028.1 0Z" fill="#000718" stroke="#000718"></path><path d="M2560 0L2241.6 0L2248.6 206Z" fill="#111b29" stroke="#111b29"></path><path d="M2259.6 1440L2560 1440L2256.6 1210Z" fill="#000000" stroke="#000000"></path><path d="M298.4 734L302.4 982L561.9 751Z" fill="#000718" stroke="#000718"></path><path d="M561.9 751L302.4 982L577.9 944Z" fill="#182230" stroke="#182230"></path><path d="M596.9 0L534.9 218L840.3 206Z" fill="#0a1522" stroke="#0a1522"></path><path d="M2560 452L2560 262L2309.6 467Z" fill="#1c2633" stroke="#1c2633"></path><path d="M298.4 734L561.9 751L592.9 448Z" fill="#1c2633" stroke="#1c2633"></path><path d="M267.4 455L298.4 734L592.9 448Z" fill="#151f2c" stroke="#151f2c"></path><path d="M855.3 0L596.9 0L840.3 206Z" fill="#000718" stroke="#000718"></path><path d="M289.4 277L267.4 455L592.9 448Z" fill="#000c1b" stroke="#000c1b"></path><path d="M277.4 1440L301.4 1215L0 1209Z" fill="#182230" stroke="#182230"></path><path d="M302.4 982L301.4 1215L588.9 1179Z" fill="#0e1825" stroke="#0e1825"></path><path d="M289.4 277L592.9 448L534.9 218Z" fill="#0e1825" stroke="#0e1825"></path><path d="M298.4 734L0 981L302.4 982Z" fill="#151f2c" stroke="#151f2c"></path><path d="M2560 262L2560 0L2248.6 206Z" fill="#1f2937" stroke="#1f2937"></path><path d="M268.4 0L289.4 277L534.9 218Z" fill="#000000" stroke="#000000"></path><path d="M0 1209L301.4 1215L302.4 982Z" fill="#000718" stroke="#000718"></path><path d="M301.4 1215L277.4 1440L577.9 1440Z" fill="#182230" stroke="#182230"></path><path d="M0 684L298.4 734L267.4 455Z" fill="#151f2c" stroke="#151f2c"></path><path d="M596.9 0L268.4 0L534.9 218Z" fill="#182230" stroke="#182230"></path><path d="M0 684L0 981L298.4 734Z" fill="#05111f" stroke="#05111f"></path><path d="M0 684L267.4 455L0 480Z" fill="#000c1b" stroke="#000c1b"></path><path d="M0 480L267.4 455L0 249Z" fill="#000c1b" stroke="#000c1b"></path><path d="M0 981L0 1209L302.4 982Z" fill="#05111f" stroke="#05111f"></path><path d="M0 249L267.4 455L289.4 277Z" fill="#1f2937" stroke="#1f2937"></path><path d="M0 1209L0 1440L277.4 1440Z" fill="#05111f" stroke="#05111f"></path><path d="M268.4 0L0 249L289.4 277Z" fill="#1f2937" stroke="#1f2937"></path><path d="M268.4 0L0 0L0 249Z" fill="#0e1825" stroke="#0e1825"></path></g></svg>