<svg id="visual" viewBox="0 0 2560 1440" width="2560" height="1440" xmlns="http://www.w3.org/2000/svg" xmlns:xlink="http://www.w3.org/1999/xlink" version="1.1"><g stroke-width="1" stroke-linejoin="bevel"><path d="M1406.2 700L1427.2 486L1159.8 471Z" fill="#3b82f6" stroke="#3b82f6"></path><path d="M1159.8 471L1138.8 735L1406.2 700Z" fill="#3b82f6" stroke="#3b82f6"></path><path d="M1427.2 486L1169.8 255L1159.8 471Z" fill="#2c70cd" stroke="#2c70cd"></path><path d="M853.3 725L1109.8 932L1138.8 735Z" fill="#223a5a" stroke="#223a5a"></path><path d="M1138.8 735L1412.2 922L1406.2 700Z" fill="#3b82f6" stroke="#3b82f6"></path><path d="M1725.7 706L1681.7 458L1427.2 486Z" fill="#2c70cd" stroke="#2c70cd"></path><path d="M853.3 725L1138.8 735L1159.8 471Z" fill="#1f2937" stroke="#1f2937"></path><path d="M1138.8 735L1109.8 932L1412.2 922Z" fill="#1f2937" stroke="#1f2937"></path><path d="M1427.2 486L1428.2 212L1169.8 255Z" fill="#3b82f6" stroke="#3b82f6"></path><path d="M1725.7 706L1427.2 486L1406.2 700Z" fill="#224c7f" stroke="#224c7f"></path><path d="M1427.2 486L1681.7 458L1428.2 212Z" fill="#1f2937" stroke="#1f2937"></path><path d="M1412.2 922L1725.7 706L1406.2 700Z" fill="#1f2937" stroke="#1f2937"></path><path d="M815.3 515L853.3 725L1159.8 471Z" fill="#224c7f" stroke="#224c7f"></path><path d="M838.3 262L815.3 515L1159.8 471Z" fill="#1f2937" stroke="#1f2937"></path><path d="M1169.8 255L838.3 262L1159.8 471Z" fill="#2c70cd" stroke="#2c70cd"></path><path d="M1114.8 0L838.3 262L1169.8 255Z" fill="#213248" stroke="#213248"></path><path d="M1979.1 486L1722.7 229L1681.7 458Z" fill="#223a5a" stroke="#223a5a"></path><path d="M1681.7 458L1722.7 229L1428.2 212Z" fill="#2c70cd" stroke="#2c70cd"></path><path d="M1412.2 922L1671.7 992L1725.7 706Z" fill="#3b82f6" stroke="#3b82f6"></path><path d="M1415.2 1225L1671.7 992L1412.2 922Z" fill="#224c7f" stroke="#224c7f"></path><path d="M853.3 725L864.3 986L1109.8 932Z" fill="#224c7f" stroke="#224c7f"></path><path d="M1109.8 932L1415.2 1225L1412.2 922Z" fill="#224c7f" stroke="#224c7f"></path><path d="M586.9 928L864.3 986L853.3 725Z" fill="#1f2937" stroke="#1f2937"></path><path d="M1695.7 0L1414.2 0L1428.2 212Z" fill="#245ea5" stroke="#245ea5"></path><path d="M1428.2 212L1414.2 0L1169.8 255Z" fill="#2767b9" stroke="#2767b9"></path><path d="M1414.2 0L1114.8 0L1169.8 255Z" fill="#245ea5" stroke="#245ea5"></path><path d="M1128.8 1239L1415.2 1225L1109.8 932Z" fill="#245ea5" stroke="#245ea5"></path><path d="M864.3 986L1128.8 1239L1109.8 932Z" fill="#3279e2" stroke="#3279e2"></path><path d="M1995.1 710L1979.1 486L1725.7 706Z" fill="#245ea5" stroke="#245ea5"></path><path d="M1725.7 706L1979.1 486L1681.7 458Z" fill="#22436c" stroke="#22436c"></path><path d="M577.9 463L597.9 693L815.3 515Z" fill="#3b82f6" stroke="#3b82f6"></path><path d="M815.3 515L597.9 693L853.3 725Z" fill="#3b82f6" stroke="#3b82f6"></path><path d="M1980.1 243L1695.7 0L1722.7 229Z" fill="#223a5a" stroke="#223a5a"></path><path d="M1722.7 229L1695.7 0L1428.2 212Z" fill="#3279e2" stroke="#3279e2"></path><path d="M1114.8 0L872.3 0L838.3 262Z" fill="#22436c" stroke="#22436c"></path><path d="M838.3 262L577.9 463L815.3 515Z" fill="#235592" stroke="#235592"></path><path d="M2002.1 921L1995.1 710L1725.7 706Z" fill="#3279e2" stroke="#3279e2"></path><path d="M2002.1 921L1725.7 706L1671.7 992Z" fill="#235592" stroke="#235592"></path><path d="M545.9 242L577.9 463L838.3 262Z" fill="#1f2937" stroke="#1f2937"></path><path d="M586.9 928L824.3 1187L864.3 986Z" fill="#224c7f" stroke="#224c7f"></path><path d="M864.3 986L824.3 1187L1128.8 1239Z" fill="#3b82f6" stroke="#3b82f6"></path><path d="M1979.1 486L1980.1 243L1722.7 229Z" fill="#245ea5" stroke="#245ea5"></path><path d="M2027.1 0L1980.1 243L2302.6 211Z" fill="#2c70cd" stroke="#2c70cd"></path><path d="M296.4 706L586.9 928L597.9 693Z" fill="#3b82f6" stroke="#3b82f6"></path><path d="M597.9 693L586.9 928L853.3 725Z" fill="#2c70cd" stroke="#2c70cd"></path><path d="M1707.7 1440L1739.7 1226L1415.2 1225Z" fill="#2767b9" stroke="#2767b9"></path><path d="M1415.2 1225L1739.7 1226L1671.7 992Z" fill="#224c7f" stroke="#224c7f"></path><path d="M1739.7 1226L2002.1 921L1671.7 992Z" fill="#3b82f6" stroke="#3b82f6"></path><path d="M2245.6 502L1980.1 243L1979.1 486Z" fill="#2c70cd" stroke="#2c70cd"></path><path d="M543.9 0L545.9 242L838.3 262Z" fill="#224c7f" stroke="#224c7f"></path><path d="M577.9 463L322.4 495L597.9 693Z" fill="#3b82f6" stroke="#3b82f6"></path><path d="M1106.8 1440L1407.2 1440L1128.8 1239Z" fill="#22436c" stroke="#22436c"></path><path d="M1128.8 1239L1407.2 1440L1415.2 1225Z" fill="#245ea5" stroke="#245ea5"></path><path d="M875.3 1440L1106.8 1440L1128.8 1239Z" fill="#3b82f6" stroke="#3b82f6"></path><path d="M2245.6 502L1979.1 486L1995.1 710Z" fill="#235592" stroke="#235592"></path><path d="M1980.1 243L2027.1 0L1695.7 0Z" fill="#2767b9" stroke="#2767b9"></path><path d="M872.3 0L543.9 0L838.3 262Z" fill="#3b82f6" stroke="#3b82f6"></path><path d="M1739.7 1226L1989.1 1224L2002.1 921Z" fill="#223a5a" stroke="#223a5a"></path><path d="M1951.1 1440L1989.1 1224L1739.7 1226Z" fill="#213248" stroke="#213248"></path><path d="M538.9 1440L875.3 1440L824.3 1187Z" fill="#3279e2" stroke="#3279e2"></path><path d="M824.3 1187L875.3 1440L1128.8 1239Z" fill="#1f2937" stroke="#1f2937"></path><path d="M1407.2 1440L1707.7 1440L1415.2 1225Z" fill="#213248" stroke="#213248"></path><path d="M2276.6 686L1995.1 710L2002.1 921Z" fill="#1f2937" stroke="#1f2937"></path><path d="M2276.6 686L2245.6 502L1995.1 710Z" fill="#2767b9" stroke="#2767b9"></path><path d="M318.4 208L322.4 495L545.9 242Z" fill="#22436c" stroke="#22436c"></path><path d="M545.9 242L322.4 495L577.9 463Z" fill="#2c70cd" stroke="#2c70cd"></path><path d="M586.9 928L541.9 1203L824.3 1187Z" fill="#245ea5" stroke="#245ea5"></path><path d="M244.4 999L541.9 1203L586.9 928Z" fill="#1f2937" stroke="#1f2937"></path><path d="M2268.6 974L2276.6 686L2002.1 921Z" fill="#2767b9" stroke="#2767b9"></path><path d="M322.4 495L296.4 706L597.9 693Z" fill="#245ea5" stroke="#245ea5"></path><path d="M543.9 0L318.4 208L545.9 242Z" fill="#1f2937" stroke="#1f2937"></path><path d="M322.4 495L0 697L296.4 706Z" fill="#245ea5" stroke="#245ea5"></path><path d="M1989.1 1224L2268.6 974L2002.1 921Z" fill="#224c7f" stroke="#224c7f"></path><path d="M2245.6 502L2302.6 211L1980.1 243Z" fill="#1f2937" stroke="#1f2937"></path><path d="M2560 497L2302.6 211L2245.6 502Z" fill="#245ea5" stroke="#245ea5"></path><path d="M2560 497L2245.6 502L2276.6 686Z" fill="#3b82f6" stroke="#3b82f6"></path><path d="M1989.1 1224L2290.6 1177L2268.6 974Z" fill="#235592" stroke="#235592"></path><path d="M1707.7 1440L1951.1 1440L1739.7 1226Z" fill="#235592" stroke="#235592"></path><path d="M0 955L244.4 999L296.4 706Z" fill="#223a5a" stroke="#223a5a"></path><path d="M296.4 706L244.4 999L586.9 928Z" fill="#235592" stroke="#235592"></path><path d="M541.9 1203L538.9 1440L824.3 1187Z" fill="#3b82f6" stroke="#3b82f6"></path><path d="M2302.6 211L2260.6 0L2027.1 0Z" fill="#2c70cd" stroke="#2c70cd"></path><path d="M310.4 1440L538.9 1440L541.9 1203Z" fill="#22436c" stroke="#22436c"></path><path d="M2282.6 1440L2290.6 1177L1989.1 1224Z" fill="#1f2937" stroke="#1f2937"></path><path d="M2560 699L2560 497L2276.6 686Z" fill="#235592" stroke="#235592"></path><path d="M244.4 999L267.4 1161L541.9 1203Z" fill="#235592" stroke="#235592"></path><path d="M543.9 0L249.4 0L318.4 208Z" fill="#224c7f" stroke="#224c7f"></path><path d="M0 462L0 697L322.4 495Z" fill="#235592" stroke="#235592"></path><path d="M2560 699L2276.6 686L2268.6 974Z" fill="#1f2937" stroke="#1f2937"></path><path d="M2302.6 211L2560 0L2260.6 0Z" fill="#22436c" stroke="#22436c"></path><path d="M2560 997L2560 699L2268.6 974Z" fill="#235592" stroke="#235592"></path><path d="M0 462L322.4 495L318.4 208Z" fill="#1f2937" stroke="#1f2937"></path><path d="M244.4 999L0 1196L267.4 1161Z" fill="#223a5a" stroke="#223a5a"></path><path d="M0 229L0 462L318.4 208Z" fill="#223a5a" stroke="#223a5a"></path><path d="M267.4 1161L310.4 1440L541.9 1203Z" fill="#22436c" stroke="#22436c"></path><path d="M0 1440L310.4 1440L267.4 1161Z" fill="#223a5a" stroke="#223a5a"></path><path d="M2560 497L2560 260L2302.6 211Z" fill="#1f2937" stroke="#1f2937"></path><path d="M1951.1 1440L2282.6 1440L1989.1 1224Z" fill="#1f2937" stroke="#1f2937"></path><path d="M2290.6 1177L2560 997L2268.6 974Z" fill="#223a5a" stroke="#223a5a"></path><path d="M249.4 0L0 229L318.4 208Z" fill="#224c7f" stroke="#224c7f"></path><path d="M2560 1237L2560 997L2290.6 1177Z" fill="#235592" stroke="#235592"></path><path d="M0 697L0 955L296.4 706Z" fill="#3279e2" stroke="#3279e2"></path><path d="M2560 260L2560 0L2302.6 211Z" fill="#3279e2" stroke="#3279e2"></path><path d="M249.4 0L0 0L0 229Z" fill="#224c7f" stroke="#224c7f"></path><path d="M0 955L0 1196L244.4 999Z" fill="#235592" stroke="#235592"></path><path d="M2282.6 1440L2560 1237L2290.6 1177Z" fill="#22436c" stroke="#22436c"></path><path d="M2282.6 1440L2560 1440L2560 1237Z" fill="#245ea5" stroke="#245ea5"></path><path d="M0 1196L0 1440L267.4 1161Z" fill="#1f2937" stroke="#1f2937"></path></g></svg>