<svg id="visual" viewBox="0 0 2560 1440" width="2560" height="1440" xmlns="http://www.w3.org/2000/svg" xmlns:xlink="http://www.w3.org/1999/xlink" version="1.1"><rect x="0" y="0" width="2560" height="1440" fill="#1351ae"></rect><path d="M0 1129L106.7 1121.7C213.3 1114.3 426.7 1099.7 640 1118.3C853.3 1137 1066.7 1189 1280 1204.5C1493.3 1220 1706.7 1199 1920 1167.3C2133.3 1135.7 2346.7 1093.3 2453.3 1072.2L2560 1051L2560 1441L2453.3 1441C2346.7 1441 2133.3 1441 1920 1441C1706.7 1441 1493.3 1441 1280 1441C1066.7 1441 853.3 1441 640 1441C426.7 1441 213.3 1441 106.7 1441L0 1441Z" fill="#1F2937" stroke-linecap="round" stroke-linejoin="miter"></path></svg>